<?xml version="1.0" standalone="no"?>
<!DOCTYPE svg PUBLIC "-//W3C//DTD SVG 20010904//EN"
 "http://www.w3.org/TR/2001/REC-SVG-20010904/DTD/svg10.dtd">
<svg version="1.0" xmlns="http://www.w3.org/2000/svg"
 width="512.000000pt" height="512.000000pt" viewBox="0 0 512.000000 512.000000"
 preserveAspectRatio="xMidYMid meet">
<metadata>
Created by potrace 1.14, written by Peter Selinger 2001-2017
</metadata>
<g transform="translate(0.000000,512.000000) scale(0.100000,-0.100000)"
fill="#000000" stroke="none">
<path d="M650 5000 c-250 -34 -448 -206 -517 -450 -17 -62 -18 -153 -18 -1995
0 -1855 1 -1932 19 -1990 66 -212 220 -367 431 -432 57 -17 145 -18 1995 -18
1850 0 1938 1 1995 18 211 65 365 220 431 432 18 58 19 135 19 1990 0 1842 -1
1933 -18 1995 -59 209 -221 373 -432 436 -57 17 -159 18 -1955 20 -1042 1
-1920 -2 -1950 -6z m1417 -649 c65 -29 134 -101 159 -166 18 -48 19 -95 19
-1500 l0 -1450 -23 -51 c-27 -60 -89 -123 -152 -156 l-45 -23 -530 0 -530 0
-47 23 c-57 28 -119 89 -144 140 -11 22 -21 73 -25 127 -3 50 -6 711 -5 1470
l1 1380 22 48 c28 61 54 93 101 128 78 57 90 58 642 56 l505 -2 52 -24z m2096
12 c75 -21 154 -90 188 -165 l24 -53 0 -845 c0 -838 0 -845 -21 -891 -28 -60
-76 -114 -133 -147 l-46 -27 -545 0 -545 0 -48 25 c-58 29 -112 86 -141 149
-21 46 -21 49 -21 886 0 802 1 842 19 889 34 89 120 163 213 185 21 5 254 9
517 10 418 1 487 -1 539 -16z"/>
</g>
</svg>
